PathFileType   4   (X/Y/Z)
DataRate	CameraRate	NumFrames	NumMarkers	Units	OrigDataRate	OrigDataStartFrame	OrigNumFrames
120.0	120.0	8	37	mm	120.0	144	164
Frame#	Time	midhip	hip_r	hip_l	knee_r	knee_l	ankle_r	ankle_l	midasis	asis_r	asis_l	psis_r	psis_l	epicondLat_r	epicondLat_l	epicondMed_r	epicondMed_l	malleolusLat_r	malleolusLat_l	malleolusMedv_r	malleolusMedv_l	neck	subclavicle_r	subclavicle_l	sternalnotch	xyphoidprocess	thighwand_r	thighwand_l	upperleg1_r	upperleg1_l	upperleg2_r	upperleg2_l	shankwand_r	shankwand_l	lowerleg1_r	lowerleg1_l	toe_r	toe_l
 	 	X1	Y1	Z1	X2	Y2	Z2	X3	Y3	Z3	X4	Y4	Z4	X5	Y5	Z5	X6	Y6	Z6	X7	Y7	Z7	X8	Y8	Z8	X9	Y9	Z9	X10	Y10	Z10	X11	Y11	Z11	X12	Y12	Z12	X13	Y13	Z13	X14	Y14	Z14	X15	Y15	Z15	X16	Y16	Z16	X17	Y17	Z17	X18	Y18	Z18	X19	Y19	Z19	X20	Y20	Z20	X21	Y21	Z21	X22	Y22	Z22	X23	Y23	Z23	X24	Y24	Z24	X25	Y25	Z25	X26	Y26	Z26	X27	Y27	Z27	X28	Y28	Z28	X29	Y29	Z29	X30	Y30	Z30	X31	Y31	Z31	X32	Y32	Z32	X33	Y33	Z33	X34	Y34	Z34	X35	Y35	Z35	X36	Y36	Z36	X37	Y37	Z37

	144	1.50000	1393.239	747.397	-184.636	1371.830	742.659	-126.175	1381.861	743.089	-256.103	1335.319	407.375	-152.492	1495.292	431.487	-262.287	1280.007	65.924	-169.087	1612.517	94.165	-283.891	1446.792	811.928	-185.510	1438.995	811.594	-84.519	1454.589	812.262	-286.501	1288.016	852.599	-165.663	1290.599	848.806	-220.196	1328.204	403.877	-98.067	1494.913	432.430	-316.777	1358.215	417.394	-201.435	1495.541	398.489	-222.282	1271.872	65.463	-132.483	1603.586	93.360	-319.788	1278.759	69.533	-194.807	1616.722	94.381	-254.070	1316.058	1218.903	-190.365	1423.505	1160.559	-147.743	1421.195	1163.630	-223.625	1407.599	1160.934	-186.678	1435.637	1078.655	-188.453	1436.236	517.298	-24.817	1588.572	590.920	-266.713	1373.243	580.310	-62.301	1503.463	622.542	-303.828	1369.967	497.474	-84.063	1523.006	537.231	-302.373	1274.961	171.789	-50.530	1573.608	218.719	-387.880	1272.455	141.386	-128.213	1576.025	173.935	-315.831	1374.227	35.847	-155.015	1714.383	91.971	-301.840
	145	1.50833	1398.049	746.900	-184.711	1376.313	742.133	-126.378	1386.936	742.365	-256.260	1338.016	407.150	-152.730	1500.352	430.787	-262.245	1280.277	66.070	-169.192	1624.765	95.804	-284.543	1451.549	811.308	-185.476	1443.289	811.127	-84.487	1459.809	811.489	-286.465	1292.663	852.049	-166.385	1295.447	848.130	-220.878	1330.680	403.710	-98.330	1500.283	431.808	-316.735	1362.923	417.172	-201.791	1500.350	397.681	-222.282	1272.097	65.688	-132.597	1615.722	94.833	-320.408	1279.106	69.712	-194.911	1628.830	96.295	-254.715	1320.476	1218.305	-191.220	1428.042	1159.907	-148.156	1426.058	1162.942	-224.035	1412.304	1160.254	-187.154	1440.402	1077.992	-188.772	1439.142	516.827	-24.648	1593.572	590.175	-265.908	1376.523	580.031	-62.465	1508.607	621.862	-303.463	1373.554	497.230	-84.283	1528.188	536.542	-302.021	1275.853	172.022	-50.710	1582.742	219.789	-388.236	1273.344	141.528	-128.445	1586.330	174.991	-316.113	1374.292	35.803	-154.959	1726.987	94.645	-301.799
	146	1.51667	1402.930	746.425	-184.814	1380.834	741.594	-126.623	1392.036	741.622	-256.456	1340.809	406.914	-152.974	1505.418	430.085	-262.243	1280.571	66.225	-169.305	1636.450	97.393	-285.253	1456.335	810.673	-185.493	1447.621	810.652	-84.498	1465.049	810.695	-286.489	1297.341	851.483	-167.149	1300.335	847.432	-221.615	1333.236	403.539	-98.603	1505.667	431.188	-316.732	1367.964	416.850	-201.994	1505.194	396.984	-221.850	1272.335	65.928	-132.722	1627.349	96.288	-321.099	1279.521	69.908	-195.023	1640.309	98.101	-255.440	1325.225	1217.661	-192.107	1432.613	1159.262	-148.553	1430.898	1162.227	-224.465	1417.013	1159.579	-187.618	1445.084	1077.305	-189.058	1442.081	516.355	-24.481	1598.603	589.414	-265.121	1380.134	579.703	-62.653	1513.852	621.121	-303.123	1377.406	497.063	-84.407	1533.435	535.794	-301.527	1276.755	172.289	-50.897	1591.675	220.880	-388.634	1274.237	141.571	-128.698	1596.044	175.819	-316.823	1374.360	35.758	-154.908	1739.024	97.132	-301.580
	147	1.52500	1407.813	745.899	-184.962	1385.397	741.050	-126.904	1397.163	740.870	-256.687	1343.750	406.665	-153.209	1510.499	429.390	-262.292	1280.891	66.387	-169.416	1647.565	98.891	-286.006	1461.157	810.032	-185.557	1451.999	810.173	-84.543	1470.315	809.891	-286.570	1302.063	850.905	-167.958	1305.275	846.728	-222.405	1335.910	403.367	-98.870	1511.074	430.580	-316.776	1373.107	416.266	-201.970	1510.055	396.147	-221.823	1272.577	66.182	-132.850	1638.467	97.689	-321.850	1279.973	70.131	-195.125	1651.148	99.827	-256.202	1330.368	1216.930	-193.127	1437.268	1158.612	-148.991	1435.780	1161.492	-224.955	1421.784	1158.901	-188.124	1449.766	1076.594	-189.385	1445.030	515.879	-24.308	1603.665	588.623	-264.356	1383.838	579.288	-62.916	1519.147	620.374	-302.752	1381.341	496.887	-84.436	1538.714	535.081	-301.166	1277.660	172.591	-51.092	1600.432	221.982	-389.077	1274.803	141.832	-128.782	1605.253	176.620	-317.617	1374.435	35.720	-154.861	1750.489	99.409	-301.148
	148	1.53333	1412.695	745.324	-185.164	1390.004	740.513	-127.207	1402.317	740.120	-256.939	1346.794	406.412	-153.436	1515.599	428.702	-262.409	1281.219	66.568	-169.517	1658.087	100.255	-286.762	1466.018	809.391	-185.651	1456.428	809.697	-84.609	1475.608	809.086	-286.693	1306.840	850.330	-168.815	1310.274	846.034	-223.247	1338.662	403.201	-99.135	1516.511	429.990	-316.887	1377.723	415.725	-201.987	1514.807	395.311	-221.862	1272.815	66.461	-132.971	1649.063	98.999	-322.623	1280.381	70.369	-195.213	1661.271	101.369	-256.962	1335.405	1216.245	-194.160	1441.947	1157.935	-149.492	1440.740	1160.774	-225.459	1426.607	1158.216	-188.680	1454.523	1075.884	-189.794	1447.977	515.403	-24.132	1608.758	587.794	-263.609	1387.531	579.019	-63.240	1524.465	619.646	-302.462	1385.038	496.652	-84.564	1543.991	534.315	-300.866	1278.566	172.938	-51.289	1609.043	223.072	-389.560	1275.144	142.558	-128.650	1614.288	177.662	-318.068	1374.518	35.694	-154.816	1761.376	101.452	-300.485
	149	1.54167	1417.661	744.792	-185.423	1394.653	739.983	-127.517	1407.501	739.377	-257.196	1349.907	406.158	-153.651	1520.708	428.011	-262.621	1281.542	66.782	-169.605	1667.994	101.440	-287.471	1470.923	808.751	-185.759	1460.910	809.223	-84.690	1480.936	808.278	-286.829	1311.679	849.769	-169.712	1315.331	845.355	-224.134	1341.468	403.041	-99.392	1521.968	429.418	-317.088	1380.479	415.378	-202.023	1519.544	394.549	-221.520	1273.041	66.778	-133.081	1659.129	100.174	-323.371	1280.706	70.613	-195.298	1670.661	102.646	-257.682	1340.110	1215.626	-195.107	1446.620	1157.249	-150.016	1445.751	1160.074	-225.978	1431.454	1157.521	-189.267	1459.383	1075.192	-190.241	1450.922	514.932	-23.964	1613.880	586.920	-262.877	1391.250	579.087	-63.556	1529.840	618.819	-302.241	1388.024	496.306	-84.802	1549.294	533.462	-300.464	1279.474	173.335	-51.482	1617.529	224.109	-390.068	1275.792	143.184	-128.658	1623.077	178.603	-318.599	1374.614	35.678	-154.773	1771.664	103.239	-299.583
	150	1.55000	1422.662	744.247	-185.774	1399.337	739.459	-127.844	1412.713	738.646	-257.469	1353.082	405.905	-153.854	1525.823	427.313	-262.951	1281.860	67.038	-169.679	1677.285	102.405	-288.103	1475.870	808.106	-185.882	1465.440	808.740	-84.800	1486.301	807.472	-286.965	1316.590	849.220	-170.640	1320.441	844.704	-225.052	1344.330	402.891	-99.639	1527.447	428.862	-317.405	1373.617	415.111	-202.548	1524.271	393.682	-221.424	1273.257	67.142	-133.179	1668.659	101.168	-324.062	1281.014	70.906	-195.384	1679.403	103.691	-258.301	1344.671	1215.030	-196.015	1451.337	1156.588	-150.565	1450.748	1159.403	-226.564	1436.317	1156.844	-189.889	1464.309	1074.535	-190.748	1453.877	514.473	-23.820	1619.027	585.984	-262.174	1393.208	578.466	-63.752	1535.257	617.953	-301.951	1386.741	494.698	-85.476	1554.587	532.644	-300.126	1280.380	173.780	-51.667	1625.892	225.057	-390.577	1276.689	143.665	-128.812	1631.484	179.291	-319.378	1374.718	35.670	-154.734	1781.303	104.743	-298.431
	151	1.55833	1427.657	743.661	-186.216	1404.043	738.937	-128.212	1417.952	737.933	-257.779	1356.280	405.672	-154.051	1530.959	426.611	-263.406	1282.181	67.337	-169.736	1685.945	103.125	-288.642	1480.855	807.456	-186.031	1470.005	808.240	-84.957	1491.706	806.673	-287.104	1321.566	848.687	-171.592	1325.599	844.089	-225.989	1347.222	402.770	-99.880	1532.959	428.321	-317.843	1372.509	415.283	-202.503	1528.895	392.742	-221.697	1273.471	67.554	-133.262	1677.636	101.955	-324.678	1281.376	71.280	-195.458	1687.507	104.472	-258.809	1349.444	1214.373	-196.967	1456.077	1155.953	-151.126	1455.764	1158.763	-227.122	1441.201	1156.197	-190.502	1469.250	1073.906	-191.254	1456.856	514.029	-23.710	1624.196	584.980	-261.519	1398.006	578.744	-64.016	1540.682	617.171	-301.639	1388.564	494.122	-85.797	1559.847	531.844	-299.919	1281.281	174.273	-51.837	1634.117	225.885	-391.063	1277.595	144.071	-129.124	1639.457	179.825	-320.093	1374.827	35.671	-154.705	1790.243	105.943	-297.040
